<svg width="50" height="374" viewBox="0 0 50 374" fill="none" xmlns="http://www.w3.org/2000/svg">
<path d="M43.376 165.125H6.86328C4.86816 165.125 3.125 166.561 3.125 168.532V205.126C3.125 207.108 4.86816 208.875 6.86328 208.875H43.3652C45.3711 208.875 46.875 207.097 46.875 205.126V168.532C46.8867 166.561 45.3711 165.125 43.376 165.125ZM16.6865 201.593H10.4189V182.105H16.6865V201.593ZM13.7695 179.143H13.7246C11.7187 179.143 10.4199 177.649 10.4199 175.78C10.4199 173.877 11.7529 172.419 13.8037 172.419C15.8545 172.419 17.1094 173.866 17.1543 175.78C17.1533 177.649 15.8545 179.143 13.7695 179.143ZM39.5928 201.593H33.3252V190.938C33.3252 188.385 32.4131 186.641 30.1455 186.641C28.4131 186.641 27.3877 187.813 26.9316 188.954C26.7607 189.364 26.7148 189.923 26.7148 190.493V201.593H20.4473V182.105H26.7148V184.817C27.627 183.519 29.0518 181.649 32.3672 181.649C36.4814 181.649 39.5938 184.361 39.5938 190.208L39.5928 201.593Z" fill="#0077B5"/>
<path d="M34.1143 249.771C36.5295 249.778 38.8439 250.74 40.5517 252.448C42.2596 254.156 43.2223 256.47 43.2295 258.886V277.114C43.2223 279.53 42.2596 281.844 40.5517 283.552C38.8439 285.26 36.5295 286.222 34.1143 286.229H15.8857C13.4705 286.222 11.1561 285.26 9.44827 283.552C7.74039 281.844 6.77772 279.53 6.77051 277.114V258.886C6.77772 256.47 7.74039 254.156 9.44827 252.448C11.1561 250.74 13.4705 249.778 15.8857 249.771H34.1143ZM34.1143 246.125H15.8857C8.86719 246.125 3.125 251.867 3.125 258.886V277.114C3.125 284.133 8.86719 289.875 15.8857 289.875H34.1143C41.1328 289.875 46.875 284.133 46.875 277.114V258.886C46.875 251.867 41.1328 246.125 34.1143 246.125Z" fill="#F601D1"/>
<path d="M36.8486 258.886C36.3078 258.886 35.7792 258.725 35.3295 258.425C34.8798 258.124 34.5294 257.697 34.3224 257.198C34.1154 256.698 34.0613 256.148 34.1668 255.618C34.2723 255.088 34.5327 254.6 34.9151 254.218C35.2975 253.835 35.7848 253.575 36.3152 253.47C36.8456 253.364 37.3954 253.418 37.895 253.625C38.3947 253.832 38.8217 254.183 39.1222 254.632C39.4226 255.082 39.583 255.611 39.583 256.151C39.5838 256.511 39.5136 256.867 39.3764 257.199C39.2393 257.531 39.0379 257.833 38.7838 258.087C38.5298 258.341 38.228 258.542 37.8959 258.679C37.5638 258.816 37.2079 258.887 36.8486 258.886ZM25 260.708C26.4422 260.708 27.852 261.136 29.0512 261.937C30.2504 262.738 31.185 263.877 31.7369 265.209C32.2888 266.542 32.4332 268.008 32.1519 269.423C31.8705 270.837 31.176 272.136 30.1562 273.156C29.1364 274.176 27.8371 274.871 26.4226 275.152C25.0081 275.433 23.5419 275.289 22.2095 274.737C20.877 274.185 19.7382 273.25 18.9369 272.051C18.1357 270.852 17.708 269.442 17.708 268C17.7101 266.067 18.479 264.213 19.8461 262.846C21.2131 261.479 23.0667 260.71 25 260.708ZM25 257.063C22.8368 257.063 20.7221 257.704 18.9234 258.906C17.1248 260.108 15.7229 261.816 14.8951 263.814C14.0672 265.813 13.8506 268.012 14.2727 270.134C14.6947 272.255 15.7364 274.204 17.266 275.734C18.7957 277.264 20.7445 278.305 22.8662 278.727C24.9879 279.149 27.187 278.933 29.1856 278.105C31.1842 277.277 32.8924 275.875 34.0942 274.077C35.296 272.278 35.9375 270.163 35.9375 268C35.9375 265.099 34.7852 262.317 32.734 260.266C30.6828 258.215 27.9008 257.063 25 257.063Z" fill="#F601D1"/>
<path d="M48.4375 334.693C46.6792 335.457 44.8187 335.961 42.915 336.187C44.9157 335.016 46.4202 333.155 47.1465 330.953C45.255 332.059 43.189 332.835 41.0371 333.248C40.131 332.298 39.0411 331.543 37.8339 331.027C36.6267 330.512 35.3273 330.248 34.0146 330.25C28.7002 330.25 24.3994 334.488 24.3994 339.713C24.3956 340.44 24.4789 341.164 24.6475 341.871C20.8366 341.692 17.105 340.72 13.6914 339.017C10.2778 337.313 7.25731 334.916 4.82324 331.979C3.96931 333.418 3.51771 335.061 3.51562 336.734C3.51562 340.016 5.22754 342.916 7.8125 344.615C6.28098 344.579 4.78085 344.174 3.43945 343.434V343.551C3.43945 348.141 6.75977 351.959 11.1543 352.828C10.3279 353.048 9.47634 353.16 8.62109 353.16C8.01424 353.161 7.40876 353.102 6.81348 352.984C8.03516 356.744 11.5908 359.479 15.8027 359.557C12.3803 362.194 8.17834 363.62 3.85742 363.609C3.09045 363.608 2.32419 363.563 1.5625 363.473C5.95818 366.279 11.0678 367.764 16.2832 367.75C33.9941 367.75 43.6699 353.326 43.6699 340.816C43.6699 340.406 43.6592 339.996 43.6396 339.596C45.5177 338.26 47.1424 336.6 48.4375 334.693Z" fill="#1DA1F2"/>
<path fill-rule="evenodd" clip-rule="evenodd" d="M46.875 106.132C46.875 94.0518 37.0801 84.2568 25 84.2568C12.9199 84.2568 3.125 94.0518 3.125 106.132C3.125 117.05 11.123 126.1 21.582 127.742V112.457H16.0264V106.132H21.582V101.312C21.582 95.8311 24.8486 92.8008 29.8447 92.8008C32.2383 92.8008 34.7422 93.2285 34.7422 93.2285V98.6123H31.9824C29.2666 98.6123 28.417 100.298 28.417 102.03V106.132H34.4834L33.5146 112.457H28.418V127.744C38.877 126.103 46.875 117.053 46.875 106.132Z" fill="#1877F2"/>
<path fill-rule="evenodd" clip-rule="evenodd" d="M40.501 9.4824C38.4786 7.45903 36.0759 5.85565 33.4314 4.76458C30.7868 3.6735 27.9526 3.11628 25.0918 3.12498C13.0859 3.12498 3.3125 12.8496 3.30762 24.8047C3.30231 28.6114 4.30576 32.3516 6.21582 35.6445L3.125 46.875L14.6729 43.8603C17.8694 45.592 21.4476 46.4983 25.083 46.4971H25.0918C37.0967 46.4971 46.8691 36.7715 46.875 24.8174C46.8823 21.9663 46.3225 19.1423 45.2282 16.5097C44.1339 13.877 42.527 11.4883 40.501 9.4824ZM25.0918 42.8379H25.084C21.8431 42.8388 18.6612 41.9715 15.8691 40.3262L15.208 39.9355L8.35547 41.7246L10.1846 35.0752L9.75391 34.3916C7.94178 31.5226 6.98169 28.198 6.98535 24.8047C6.98535 14.8701 15.1113 6.78709 25.0986 6.78709C29.8896 6.77853 34.4879 8.67335 37.8819 12.0548C41.276 15.4362 43.1879 20.0273 43.1973 24.8183C43.1934 34.7539 35.0713 42.8379 25.0918 42.8379ZM35.0225 29.3428C34.4785 29.0713 31.7998 27.7607 31.3037 27.5801C30.8076 27.3994 30.4414 27.3086 30.0791 27.8515C29.7168 28.3945 28.6729 29.6094 28.3555 29.9756C28.0381 30.3418 27.7207 30.3818 27.1768 30.1103C26.6328 29.8388 24.8779 29.2676 22.7988 27.4219C21.1807 25.9853 20.0889 24.2119 19.7715 23.6699C19.4541 23.1279 19.7373 22.834 20.0098 22.5644C20.2549 22.3213 20.5537 21.9316 20.8262 21.6152C21.0986 21.2988 21.1895 21.0722 21.3701 20.7109C21.5508 20.3496 21.4609 20.0332 21.3252 19.7627C21.1895 19.4922 20.1006 16.8252 19.6475 15.7402C19.2051 14.6836 18.7568 14.8271 18.4229 14.8105C18.1055 14.7949 17.7393 14.791 17.3789 14.791C17.1034 14.7982 16.8324 14.862 16.5827 14.9787C16.333 15.0953 16.1101 15.2621 15.9277 15.4687C15.4287 16.0117 14.0225 17.3242 14.0225 19.9883C14.0225 22.6523 15.9756 25.2304 16.2451 25.5918C16.5146 25.9531 20.083 31.4248 25.543 33.7715C26.5568 34.2057 27.5928 34.5864 28.6465 34.9121C29.9502 35.3242 31.1367 35.2666 32.0742 35.1269C33.1201 34.9717 35.2969 33.8164 35.749 32.5508C36.2012 31.2851 36.2021 30.2012 36.0664 29.9756C35.9307 29.75 35.5674 29.6133 35.0225 29.3428Z" fill="#34B521"/>
</svg>
