<?xml version="1.0" encoding="UTF-8"?><svg id="Warstwa_89" xmlns="http://www.w3.org/2000/svg" xmlns:xlink="http://www.w3.org/1999/xlink" viewBox="0 0 1300 1300"><defs><style>.cls-1{fill:#efac9c;}.cls-2{fill:#717881;}.cls-3{fill:#213760;}.cls-4{fill:#6ea6d9;}.cls-5{clip-path:url(#clippath);}.cls-6{stroke:#b3d1ec;stroke-miterlimit:10;stroke-width:2.76px;}.cls-6,.cls-7{fill:none;}.cls-8{fill:#eaf2fa;}.cls-9{fill:#adb6c7;}.cls-10{fill:#717882;}</style><clipPath id="clippath"><polygon class="cls-7" points="210.95 1113.28 859.31 1149.05 1018.84 872.14 391.3 889.61 210.95 1113.28"/></clipPath></defs><path class="cls-10" d="m921.9,423.33l75.36-344.1,14.22-38.39-51.19,322.78c-1.16,9.73-5.5,34.13-25.59,51.19-4.28,3.63-8.65,6.4-12.8,8.53Z"/><path class="cls-10" d="m546.51,463.15l375.39-31.28-2.84,14.22-115.79,23.57c-29.78,6.06-60.26,8-90.57,5.76l-166.18-12.27Z"/><path class="cls-10" d="m924.79,458.65l243.2,351.42-136.12-240.83c-15.56-27.52-34.29-53.12-55.81-76.28l-41.23-44.36-10.04,10.04Z"/><path class="cls-3" d="m929.88,465.66c3.76-1.16,14.17-7.81,14.17-7.81l19.67,56.4-33.84-48.59Z"/><path class="cls-8" d="m657.55,1001.95l459.19,38.09c32.87,4.2,44.51,45.86,18.58,66.48l-106.6,84.8-785.67-52.6,404.81-154.11c5.76-2.19,3.59,16.56,9.7,17.34Z"/><path class="cls-10" d="m911.15,445.14c-3.41,3.15-8.6,7.4-15.62,11.16-9.39,5.03-17.14,6.56-29.01,8.92-10.96,2.18-23.12,4.62-39.05,7.81v7.81l51.32,1.12h14.5l-1.12-8.93,33.47-6.69-14.5-21.2Z"/><polygon class="cls-10" points="880.26 475.18 885.38 892.94 905.03 892.94 890.51 468.35 880.26 475.18"/><polygon class="cls-10" points="599.28 653.84 557.57 754.73 531.34 844.86 571.7 756.75 598.6 688.81 599.28 653.84"/><path class="cls-10" d="m597.98,635.08c4.71.15,12.26.3,21.52,0,24.67-.8,49.02-4.38,115.02-21.52,12.54-3.26,29.56-7.78,49.77-13.45-59.86,20.85-119.72,41.7-179.59,62.55l-6.73-27.58Z"/><rect class="cls-10" x="597.98" y="654.37" width="9.01" height="263.2"/><polygon class="cls-9" points="391.3 889.61 210.95 1113.28 210.95 1139.05 859.73 1183.55 1020.17 908.34 1019 872.04 391.3 889.61"/><circle class="cls-1" cx="925.96" cy="443.57" r="23.07"/><path class="cls-10" d="m593.05,625.79l-54.34-52.8c-7.96-7.74-16.3-15.09-24.97-22.03l-71.41-57.13,38.17,40.69c24.93,26.58,52.69,50.36,82.77,70.92l29.78,20.35Z"/><rect class="cls-1" x="864.42" y="751.42" width="30.45" height="72.61"/><path class="cls-3" d="m869.1,1181.21l148.73-258.81v37.47l-39.82,74.95v93.69l-36.3,56.21v-76.12l-42.16,74.95s-30.45-4.68-30.45-2.34Z"/><polygon class="cls-4" points="210.95 1113.28 859.31 1149.05 1018.84 872.14 391.3 889.61 210.95 1113.28"/><g class="cls-5"><g><polygon class="cls-10" points="860.74 1149.77 1019.1 872.01 1020.25 908.52 860.74 1182.58 860.74 1149.77"/><line class="cls-6" x1="765.14" y1="865.82" x2="591.81" y2="1141.82"/><line class="cls-6" x1="833.63" y1="865.11" x2="650.28" y2="1155.47"/><line class="cls-6" x1="904.26" y1="862.97" x2="732.32" y2="1147.63"/><line class="cls-6" x1="972.74" y1="859.4" x2="793.67" y2="1154.05"/><line class="cls-6" x1="450.03" y1="856.89" x2="261.04" y2="1122.4"/><line class="cls-6" x1="1006.39" y1="936.17" x2="344.31" y2="934.19"/><line class="cls-6" x1="982.67" y1="1013.25" x2="262.29" y2="991.51"/><line class="cls-6" x1="985.64" y1="1089.34" x2="220.79" y2="1049.81"/><line class="cls-6" x1="518.45" y1="860.13" x2="318.62" y2="1139.41"/><line class="cls-6" x1="589.08" y1="862.08" x2="400.98" y2="1136.32"/><line class="cls-6" x1="657.66" y1="862.48" x2="461.86" y2="1146.28"/></g></g><polygon class="cls-3" points="236.74 1081.01 1014.12 872.24 391.3 889.61 236.74 1081.01"/><circle class="cls-10" cx="599.2" cy="649.47" r="15.12"/><path class="cls-3" d="m892.18,473.03l-38.31,8.44h34.61s2.95,17.3,2.95,15.61,3.38-24.9,3.38-24.9l-2.62.85Z"/><path class="cls-8" d="m631.1,1128.48l225.75,11.18,48.61-86.05-57.26,63.03c-5.89,6.48-14.22,10.21-22.98,10.28l-194.13,1.57Z"/><path class="cls-2" d="m859.31,1149.05c-.31,1.47-1.42,36.67.42,34.5s161.18-273.66,160.44-275.2-1.33-36.21-1.33-36.21l-159.54,276.91Z"/></svg>